# AST/ASF file generated using VICON BodyLanguage
# -----------------------------------------------
:version 1.10
:name VICON
:units
  mass 1.0
  length 0.45
  angle deg
:documentation
   .ast/.asf automatically generated from VICON data using
   VICON BodyBuilder and BodyLanguage model FoxedUp or BRILLIANT.MOD
:root
   order TX TY TZ RX RY RZ
   axis XYZ
   position 0 0 0  
   orientation 0 0 0 
:bonedata
  begin
     id 1 
     name lhipjoint
     direction 0.630082 -0.636569 0.44472 
     length 2.82754 
     axis 0 0 0  XYZ
  end
  begin
     id 2 
     name lfemur
     direction 0.34202 -0.939693 0  
     length 7.26371  
     axis 0 0 20  XYZ
    dof rx ry rz
    limits (-160.0 20.0)
           (-70.0 70.0)
           (-60.0 70.0)
  end
  begin
     id 3 
     name ltibia
     direction 0.34202 -0.939693 0   
     length 7.88616   
     axis 0 0 20   XYZ
    dof rx
    limits (-10.0 170.0)
  end
  begin
     id 4 
     name lfoot
     direction 0.0603448 -0.165796 0.984312   
     length 1.77861   
     axis -90 7.62852e-016 20   XYZ
    dof rx rz
    limits (-45.0 90.0)
           (-70.0 20.0)
  end
  begin
     id 5 
     name ltoes
     direction 1.53577e-011 -4.21876e-011 1   
     length 0.902235   
     axis -90 7.62852e-016 20   XYZ
    dof rx
    limits (-90.0 20.0)
  end
  begin
     id 6 
     name rhipjoint
     direction -0.656778 -0.61817 0.431866   
     length 2.9117  
     axis 0 0 0  XYZ 
  end
  begin
     id 7 
     name rfemur
     direction -0.34202 -0.939693 0   
     length 6.81603   
     axis 0 0 -20   XYZ
    dof rx ry rz
    limits (-160.0 20.0)
           (-70.0 70.0)
           (-70.0 60.0)
  end
  begin
     id 8 
     name rtibia
     direction -0.34202 -0.939693 0   
     length 8.05997   
     axis 0 0 -20   XYZ
    dof rx
    limits (-10.0 170.0)
 end
 begin
     id 9 
     name rfoot
     direction -0.0862404 -0.236944 0.967688   
     length 1.84899  
     axis -90 -7.62852e-016 -20   XYZ
    dof rx rz
    limits (-45.0 90.0)
           (-20.0 70.0)
  end
  begin
     id 10 
     name rtoes
     direction -1.53561e-011 -4.21798e-011 1   
     length 0.931579   
     axis -90 -7.62852e-016 -20   XYZ
    dof rx
    limits (-90.0 20.0)
  end
  begin
     id 11 
     name lowerback
     direction -0.0110203 0.991769 -0.127564   
     length 2.05686   
     axis 0 0 0   XYZ
    dof rx ry rz
    limits (-20.0 45.0)
           (-30.0 30.0)
           (-30.0 30.0)
  end
  begin
     id 12 
     name upperback
     direction 0.0109719 0.99993 -0.00432479   
     length 2.06234   
     axis 0 0 0   XYZ
    dof rx ry rz
    limits (-20.0 45.0)
           (-30.0 30.0)
           (-30.0 30.0)
  end
  begin
     id 13 
     name thorax
     direction 0.0173308 0.998351 0.0547306   
     length 2.09856   
     axis 0 0 0   XYZ
    dof rx ry rz
    limits (-20.0 45.0)
           (-30.0 30.0)
           (-30.0 30.0)
  end
  begin
     id 14 
     name lowerneck
     direction -0.0311736 0.989033 0.144366   
     length 1.98151   
     axis 0 0 0   XYZ
    dof rx ry rz
    limits (-20.0 45.0)
           (-30.0 30.0)
           (-30.0 30.0)
  end
  begin
     id 15 
     name upperneck
     direction 0.0421057 0.975772 -0.214698   
     length 2.01457   
     axis 0 0 0   XYZ
    dof rx ry rz
    limits (-20.0 45.0)
           (-30.0 30.0)
           (-30.0 30.0)
  end
  begin
     id 16
     name head
     direction 0.0136911 0.995958 -0.0887718  
     length 2.03562  
     axis 0 0 0   XYZ
    dof rx ry rz
    limits (-20.0 45.0)
           (-30.0 30.0)
           (-30.0 30.0)
  end
  begin
     id 17 
     name lclavicle
     direction 0.915335 0.396201 0.0720134  
     length 4.16217  
     axis 0 0 0   XYZ
    dof ry rz
    limits (-20.0 10.0)
           (0.0 20.0)
  end
  begin
     id 18 
     name lhumerus
     direction 1 -4.48965e-011 6.383e-018   
     length 4.93042   
     axis -180 -30 -90   XYZ
    dof rx ry rz
    limits (-60.0 90.0)
           (-90.0 90.0)
           (-90.0 90.0)
  end
  begin
     id 19
     name lradius
     direction 1 -4.48972e-011 8.8689e-027   
     length 3.68177   
     axis -180 -30 -90   XYZ
    dof rx
    limits (-10.0 170.0)
  end
  begin
     id 20
     name lwrist
     direction 1 -4.48953e-011 1.17971e-026   
     length 1.84089   
     axis -7.69454e-015 90 90   XYZ
    dof ry
    limits (-180.0 0.0)
 end
  begin
     id 21 
     name lhand
     direction 1 -4.49027e-011 2.35802e-026   
     length 0.721479   
     axis -1.50533e-014 90 90   XYZ
    dof rx rz
    limits (-90.0 90.0)
           (-45.0 45.0)
  end
  begin
     id 22 
     name lfingers
     direction 1 -4.48915e-011 4.72027e-026   
     length 0.581675   
     axis -3.01059e-014 90 90   XYZ
    dof rx
    limits (0.0 90.0)
  end
  begin
     id 23
     name lthumb
     direction 0.707107 -6.34948e-011 0.707107   
     length 0.835172   
     axis -90 45 -5.12164e-014   XYZ
    dof rx rz
    limits (-45.0 45.0)
           (-45.0 45.0)
  end
  begin
     id 24 
     name rclavicle
     direction -0.882781 0.469197 0.0234974   
     length 3.95647  
     axis 0 0 0   XYZ 
    dof ry rz
    limits (-10.0 20.0)
           (-20.0 0.0)
  end
  begin
     id 25 
     name rhumerus
     direction -1 -4.48965e-011 -1.54906e-018  
     length 5.07905   
     axis -180 30 90   XYZ
    dof rx ry rz
    limits (-90.0 60.0)
           (-90.0 90.0)
           (-90.0 90.0)
  end
  begin
     id 26 
     name rradius
     direction -1 -4.48972e-011 5.47489e-027   
     length 3.54394   
     axis -180 30 90   XYZ
    dof rx
    limits (-10.0 170.0)
  end
  begin
     id 27 
     name rwrist
     direction -1 -4.48955e-011 1.17969e-026   
     length 1.77197   
     axis -7.69454e-015 -90 -90   XYZ
    dof ry
    limits (-180.0 0.0)
  end
  begin
     id 28
     name rhand
     direction -1 -4.48982e-011 2.35888e-026   
     length 0.681156   
     axis -1.50533e-014 -90 -90   XYZ
    dof rx rz
    limits (-90.0 90.0)
           (-45.0 45.0)
  end
  begin
     id 29
     name rfingers
     direction -1 -4.48955e-011 4.71877e-026   
     length 0.549165   
     axis -3.01059e-014 -90 -90   XYZ
    dof rx
    limits (0.0 90.0)
  end
  begin
     id 30
     name rthumb
     direction -0.707107 -6.3491e-011 0.707107   
     length 0.788495   
     axis -90 -45 5.12164e-014   XYZ
    dof rx rz
    limits (-45.0 45.0)
           (-45.0 45.0)
  end
:hierarchy
  begin
    root lhipjoint rhipjoint lowerback
    lhipjoint lfemur
    lfemur ltibia
    ltibia lfoot
    lfoot ltoes
    rhipjoint rfemur
    rfemur rtibia
    rtibia rfoot
    rfoot rtoes
    lowerback upperback
    upperback thorax
    thorax lowerneck lclavicle rclavicle
    lowerneck upperneck
    upperneck head
    lclavicle lhumerus
    lhumerus lradius
    lradius lwrist
    lwrist lhand lthumb
    lhand lfingers
    rclavicle rhumerus
    rhumerus rradius
    rradius rwrist
    rwrist rhand rthumb
    rhand rfingers
  end

#!OML:ASF H:\Bending\Project 1\Capture day 1\Session 1\Subject.ASF
:FULLY-SPECIFIED
:DEGREES
219
root -9.43338 17.9782 -16.4908 -161.158 86.7757 -166.055
lowerback 3.59534 -0.711518 -0.038824
upperback -3.1703 -0.791732 2.48777
thorax -5.26542 -0.321822 2.66618
lowerneck -22.8711 -3.52907 -5.92664
upperneck 29.9857 -3.66703 3.68098
head 14.3188 -1.57591 1.85535
rclavicle 1.61668e-015 1.11319e-014
rhumerus -36.0081 22.1927 -92.5868
rradius 96.541
rwrist -9.82409
rhand -23.2354 -28.279
rfingers 7.12502
rthumb 3.21579 -58.2345
lclavicle 1.61668e-015 1.11319e-014
lhumerus -36.8206 -29.5071 101.706
lradius 98.8591
lwrist 32.4536
lhand -48.2682 16.0925
lfingers 7.12502
lthumb -20.9261 44.9838
rfemur 6.43761 -3.01646 14.123
rtibia 1.27222e-014
rfoot -10.2074 -14.261
rtoes -0.195963
lfemur -8.061 -12.7881 -12.4371
ltibia 22.6186
lfoot -21.3862 8.98951
ltoes -14.5054
220
root -9.43971 17.9847 -16.4903 -160.088 86.7725 -165.161
lowerback 3.58234 -0.750425 0.0399419
upperback -3.25029 -0.837041 2.4712
thorax -5.34105 -0.345984 2.60936
lowerneck -22.9012 -3.48651 -5.88063
upperneck 29.9626 -3.5961 3.60388
head 14.3076 -1.55208 1.82869
rclavicle 8.18434e-016 4.77083e-015
rhumerus -34.515 22.569 -91.9424
rradius 96.4236
rwrist -10.8297
rhand -22.7989 -28.6891
rfingers 7.12502
rthumb 3.63731 -58.6378
lclavicle 8.18434e-016 4.77083e-015
lhumerus -35.3323 -29.6202 100.766
lradius 99.097
lwrist 32.6652
lhand -47.6819 16.6927
lfingers 7.12502
lthumb -20.3627 45.6451
rfemur 6.18168 -3.01922 14.2065
rtibia -6.36111e-015
rfoot -10.0666 -14.3269
rtoes -0.692312
lfemur -8.33974 -12.661 -12.3236
ltibia 22.6957
lfoot -21.2616 9.00119
ltoes -15.2639
221
root -9.44634 17.9905 -16.4905 -159.087 86.7416 -164.326
lowerback 3.58057 -0.813878 0.13057
upperback -3.32536 -0.914127 2.46003
thorax -5.41691 -0.386379 2.5543
lowerneck -22.9204 -3.43894 -5.8384
upperneck 29.9469 -3.5089 3.50447
head 14.2961 -1.525 1.79688
rclavicle -1.00138e-014 1.98785e-014
rhumerus -32.8838 23.1326 -91.2923
rradius 96.1275
rwrist -11.5948
rhand -22.8392 -29.0182
rfingers 7.12502
rthumb 3.59839 -58.9675
lclavicle -1.00138e-014 1.98785e-014
lhumerus -33.7924 -29.6656 99.7333
lradius 99.2696
lwrist 32.9202
lhand -47.2367 17.2677
lfingers 7.12502
lthumb -19.9348 46.2652
rfemur 5.93885 -3.04601 14.3031
rtibia 1.11319e-014
rfoot -9.85417 -14.4329
rtoes -1.72484
lfemur -8.60918 -12.6439 -12.2078
ltibia 22.7821
lfoot -21.1933 9.02694
ltoes -15.5899
222
root -9.45303 17.9959 -16.4909 -158.376 86.7177 -163.757
lowerback 3.59655 -0.887869 0.194402
upperback -3.39264 -1.00687 2.45276
thorax -5.49393 -0.43363 2.52002
lowerneck -22.9341 -3.39101 -5.78768
upperneck 29.9527 -3.41096 3.36655
head 14.2915 -1.49771 1.75038
rclavicle 1.35158e-014 -4.77083e-015
rhumerus -31.1243 23.7893 -90.6275
rradius 95.665
rwrist -12.0732
rhand -23.3432 -29.2551
rfingers 7.12502
rthumb 3.11162 -59.2122
lclavicle 1.35158e-014 -4.77083e-015
lhumerus -32.2117 -29.6465 98.644
lradius 99.3385
lwrist 33.198
lhand -46.976 17.8124
lfingers 7.12502
lthumb -19.6842 46.8357
rfemur 5.72546 -3.06813 14.3807
rtibia 0
rfoot -9.62981 -14.5298
rtoes -2.85662
lfemur -8.83225 -12.7254 -12.1182
ltibia 22.8489
lfoot -21.1911 9.07273
ltoes -15.4086
223
root -9.45979 18.0011 -16.4909 -158.059 86.7381 -163.552
lowerback 3.63355 -0.950716 0.206642
upperback -3.44795 -1.08875 2.43834
thorax -5.57031 -0.473958 2.50683
lowerneck -22.9499 -3.35078 -5.72391
upperneck 29.9792 -3.31928 3.20097
head 14.2962 -1.47535 1.68952
rclavicle -1.39926e-014 4.77083e-015
rhumerus -29.2819 24.4187 -89.9465
rradius 95.0861
rwrist -12.307
rhand -24.1014 -29.4715
rfingers 7.12502
rthumb 2.37939 -59.438
lclavicle -1.39926e-014 4.77083e-015
lhumerus -30.5995 -29.6038 97.5323
lradius 99.2756
lwrist 33.4873
lhand -46.8742 18.3279
lfingers 7.12502
lthumb -19.5863 47.3613
rfemur 5.54572 -3.0542 14.4126
rtibia -1.59028e-015
rfoot -9.44901 -14.5819
rtoes -3.68698
lfemur -8.98496 -12.8562 -12.0775
ltibia 22.8719
lfoot -21.242 9.13858
ltoes -14.8289
224
root -9.46689 18.0064 -16.4901 -158.123 86.8221 -163.703
lowerback 3.68946 -0.982221 0.169769
upperback -3.48777 -1.1338 2.40225
thorax -5.64225 -0.494993 2.4959
lowerneck -22.973 -3.3271 -5.65585
upperneck 30.0105 -3.25496 3.04091
head 14.3064 -1.46331 1.62499
rclavicle 1.78751e-014 -7.95139e-015
rhumerus -27.4222 24.9093 -89.2582
rradius 94.457
rwrist -12.3932
rhand -24.8044 -29.7521
rfingers 7.12502
rthumb 1.70045 -59.7251
lclavicle 1.78751e-014 -7.95139e-015
lhumerus -28.9606 -29.5964 96.4251
lradius 99.0667
lwrist 33.7912
lhand -46.858 18.8092
lfingers 7.12502
lthumb -19.5708 47.8442
rfemur 5.39201 -2.9869 14.3902
rtibia 4.77083e-015
rfoot -9.33529 -14.5838
rtoes -4.03923
lfemur -9.0677 -12.969 -12.0924
ltibia 22.8438
lfoot -21.3122 9.21706
ltoes -14.1229
225
root -9.47465 18.0116 -16.4888 -158.454 86.9606 -164.104
lowerback 3.75754 -0.973141 0.112356
upperback -3.51143 -1.12844 2.33647
thorax -5.7064 -0.49134 2.46133
lowerneck -23.0035 -3.32542 -5.60262
upperneck 30.0228 -3.23179 2.92313
head 14.3135 -1.46463 1.57202
rclavicle 1.94747e-015 -7.95139e-015
rhumerus -25.6064 25.1942 -88.5772
rradius 93.8331
rwrist -12.4347
rhand -25.1896 -30.1121
rfingers 7.12502
rthumb 1.3284 -60.0877
lclavicle 1.94747e-015 -7.95139e-015
lhumerus -27.2975 -29.6692 95.3442
lradius 98.71
lwrist 34.1219
lhand -46.8494 19.2389
lfingers 7.12502
lthumb -19.5625 48.2747
rfemur 5.25034 -2.87297 14.3269
rtibia 1.11319e-014
rfoot -9.27306 -14.558
rtoes -4.00771
lfemur -9.10608 -13.0045 -12.1489
ltibia 22.7789
lfoot -21.3592 9.29257
ltoes -13.6176
